<?xml version="1.0" encoding="UTF-8" standalone="no"?><!DOCTYPE svg PUBLIC "-//W3C//DTD SVG 1.1//EN" "http://www.w3.org/Graphics/SVG/1.1/DTD/svg11.dtd"><svg width="100%" height="100%" viewBox="0 0 635 543" version="1.1" xmlns="http://www.w3.org/2000/svg" xmlns:xlink="http://www.w3.org/1999/xlink" xml:space="preserve" xmlns:serif="http://www.serif.com/" style="fill-rule:evenodd;clip-rule:evenodd;"><g><path d="M51.667,539.167l-48.75,-89.167c47.916,-27.917 84.166,-59.167 108.333,-93.75c24.583,-34.583 36.667,-76.667 36.667,-127.083c-3.334,1.25 -8.75,1.666 -15.834,1.666c-30.416,0 -57.083,-9.583 -79.583,-28.75c-22.5,-19.166 -34.167,-45.833 -34.167,-79.583c0,-37.5 10.834,-66.667 32.5,-88.333c21.667,-21.667 48.75,-32.5 81.25,-32.5c44.167,-0 78.334,17.083 102.5,50.833c23.75,33.75 35.834,81.667 35.834,143.333c-0,153.334 -72.917,267.5 -218.75,343.334Zm362.5,-0l-49.167,-89.167c47.917,-27.917 84.167,-59.167 108.333,-93.75c24.584,-34.583 36.667,-76.667 36.667,-127.083c-3.333,1.25 -8.75,1.666 -15.833,1.666c-30.417,0 -57.084,-9.583 -79.584,-28.75c-22.5,-19.166 -34.166,-45.833 -34.166,-79.583c-0,-37.5 10.833,-66.667 32.5,-88.333c21.666,-21.667 48.75,-32.5 81.25,-32.5c44.166,-0 78.333,17.083 102.5,50.833c23.75,33.75 35.833,81.667 35.833,143.333c0.417,153.334 -72.5,267.5 -218.333,343.334Z" style="fill:#707070;fill-rule:nonzero;stroke:#ef9d5f;stroke-width:4.17px;"/></g></svg>